<?xml version="1.0" standalone="no"?>
<!DOCTYPE svg PUBLIC "-//W3C//DTD SVG 20010904//EN"
 "http://www.w3.org/TR/2001/REC-SVG-20010904/DTD/svg10.dtd">
<svg version="1.0" xmlns="http://www.w3.org/2000/svg"
 width="268.000000pt" height="203.000000pt" viewBox="0 0 268.000000 203.000000"
 preserveAspectRatio="xMidYMid meet">

<g transform="translate(0.000000,203.000000) scale(0.100000,-0.100000)"
fill="#000000" stroke="none">
<path d="M1055 1965 c-335 -98 -355 -105 -355 -125 0 -14 22 -24 100 -45 l100
-28 0 -162 c0 -142 2 -164 18 -177 33 -30 80 -47 168 -63 49 -9 99 -19 112
-21 17 -3 22 -11 22 -34 0 -16 11 -46 25 -66 14 -21 28 -48 31 -61 6 -21 9
-19 29 25 13 27 39 62 59 77 20 15 36 35 36 44 0 13 16 20 73 29 75 13 149 41
179 69 16 14 18 36 18 177 l0 162 48 12 c141 38 152 43 152 66 0 20 -21 28
-277 99 -153 43 -287 80 -298 82 -11 2 -119 -25 -240 -60z m230 -95 c-27 -12
-43 -12 -25 0 8 5 22 9 30 9 10 0 8 -3 -5 -9z"/>
<path d="M1785 1694 c-21 -50 -20 -54 19 -54 l35 0 -16 45 c-8 25 -17 45 -19
45 -2 0 -11 -16 -19 -36z"/>
<path d="M1000 1126 c0 -31 4 -38 28 -47 76 -28 138 -68 187 -121 29 -32 56
-67 60 -78 6 -19 10 -17 34 22 52 81 138 147 234 177 34 11 37 16 37 48 0 35
-1 35 -32 29 -86 -17 -206 -101 -243 -169 l-19 -35 -26 42 c-45 70 -148 141
-232 162 -27 6 -28 4 -28 -30z"/>
<path d="M675 1093 c-47 -6 -238 -54 -259 -65 -10 -6 -50 -36 -88 -67 -61 -49
-69 -60 -66 -86 4 -42 26 -42 165 -1 114 34 207 57 286 70 34 6 37 10 37 40 0
31 3 34 38 40 20 3 49 6 65 6 24 0 27 4 27 35 l0 35 -87 -1 c-49 -1 -101 -4
-118 -6z"/>
<path d="M1746 1073 c9 -39 10 -40 44 -46 26 -6 30 -11 30 -41 0 -33 3 -36 38
-42 78 -13 171 -36 285 -70 139 -41 161 -41 165 1 3 27 -5 37 -65 86 -86 70
-80 67 -161 89 -102 28 -228 50 -288 50 -54 0 -54 0 -48 -27z"/>
<path d="M155 645 c-59 -21 -130 -101 -145 -165 -25 -103 20 -206 114 -264 43
-27 59 -31 148 -34 l100 -4 -7 23 c-12 44 -61 79 -108 79 -81 0 -144 52 -153
126 -10 78 59 154 140 154 52 0 100 29 114 69 l11 31 -87 0 c-48 -1 -105 -7
-127 -15z"/>
<path d="M1276 638 c-4 -9 -6 -87 -4 -172 3 -150 4 -156 27 -178 16 -15 20
-17 10 -4 -10 14 -15 63 -19 195 -3 104 -9 169 -14 159z"/>
<path d="M2022 634 c-24 -43 24 -78 74 -55 20 9 25 17 22 39 -3 24 -8 27 -45
30 -31 2 -44 -1 -51 -14z"/>
<path d="M2253 606 c-46 -18 -53 -25 -53 -48 0 -21 -5 -28 -20 -28 -13 0 -20
-7 -20 -20 0 -13 7 -20 20 -20 19 0 20 -7 20 -122 0 -68 4 -128 8 -134 23 -35
102 -45 140 -18 30 21 28 38 -3 30 l-25 -6 0 125 0 125 24 0 c13 0 26 5 28 10
2 6 31 -62 65 -151 52 -138 60 -165 51 -190 -12 -36 -45 -48 -63 -23 -11 16
-15 16 -29 5 -15 -13 -15 -15 0 -32 24 -27 75 -24 102 4 18 19 78 157 173 395
8 21 6 23 -13 20 -18 -2 -30 -21 -59 -98 -42 -107 -36 -109 -80 28 l-23 72
-88 0 -88 0 0 50 c0 28 -3 49 -7 49 -5 -1 -32 -11 -60 -23z"/>
<path d="M1120 610 c0 -6 20 -10 44 -10 l44 0 4 -150 c3 -137 5 -151 24 -171
l22 -21 -5 173 c-3 96 -6 174 -7 175 -8 8 -126 11 -126 4z"/>
<path d="M1455 610 c-39 -7 -39 -7 -7 -9 l32 -1 0 -135 c0 -140 -12 -196 -46
-222 -28 -21 -11 -33 23 -17 54 27 63 62 63 238 0 119 -3 156 -12 155 -7 -1
-31 -5 -53 -9z"/>
<path d="M590 539 l0 -70 -22 15 c-35 25 -83 20 -118 -11 -24 -22 -33 -42 -42
-88 -28 -154 52 -264 155 -211 15 8 27 11 27 5 0 -5 27 -9 60 -9 l60 0 0 220
0 220 -60 0 -60 0 0 -71z m-10 -99 c6 -12 10 -63 8 -122 -3 -102 -3 -103 -27
-103 -33 0 -45 46 -38 143 7 93 32 129 57 82z"/>
<path d="M1687 532 l-57 -3 2 -162 3 -162 57 -3 56 -3 4 120 c2 100 6 122 22
140 11 12 24 20 30 18 7 -2 13 -55 16 -138 l5 -134 58 -3 57 -3 0 143 c0 175
-6 188 -80 188 -37 0 -55 -6 -79 -25 l-30 -26 -3 28 c-3 27 -4 28 -61 25z"/>
<path d="M2010 365 l0 -165 55 0 55 0 0 165 0 165 -55 0 -55 0 0 -165z"/>
<path d="M798 493 c-16 -4 -18 -20 -18 -147 0 -132 2 -144 21 -162 29 -26 90
-24 128 4 37 27 41 27 41 2 0 -18 7 -20 55 -20 l55 0 0 165 0 165 -32 0 c-76
0 -78 -2 -78 -104 0 -104 -13 -161 -39 -175 -34 -19 -41 6 -41 146 l0 133 -37
-1 c-21 -1 -46 -3 -55 -6z"/>
<path d="M162 448 c-15 -15 -15 -41 0 -56 19 -19 173 -16 192 4 19 18 19 20 6
45 -9 17 -22 19 -98 19 -55 0 -92 -4 -100 -12z"/>
<path d="M1170 215 c0 -3 12 -11 28 -18 37 -19 97 -25 157 -17 46 7 43 7 -33
9 -46 0 -98 7 -117 15 -19 8 -35 13 -35 11z"/>
</g>
</svg>
