<svg width="69" height="49" viewBox="0 0 69 49" fill="none" xmlns="http://www.w3.org/2000/svg">
<path d="M66.8478 2.41709C62.6733 0.666153 58.4956 1.29438e-07 54.32 1.29438e-07C41.0647 -0.00107605 27.8106 6.70888 14.5553 6.70888C11.231 6.70888 7.90882 6.28702 4.58451 5.23237C4.21108 5.11399 3.83657 5.05803 3.47067 5.05803C1.61857 5.05803 0 6.4915 0 8.48135V42.6241C0 43.9833 0.778076 45.2715 2.02752 45.7945C6.202 47.5466 10.3797 48.2127 14.5553 48.2127C27.8106 48.2127 41.0658 41.5027 54.3211 41.5027C57.6454 41.5027 60.9675 41.9246 64.2919 42.9793C64.6653 43.0976 65.0398 43.1536 65.4057 43.1536C67.2578 43.1536 68.8764 41.7201 68.8764 39.7303V5.58858C68.8753 4.2283 68.0972 2.94119 66.8478 2.41709ZM5.16565 10.7854C7.33091 11.3278 9.59089 11.6001 11.9154 11.7465C11.2826 14.9093 8.50179 17.2931 5.16565 17.2931V10.7854ZM5.16565 41.4565V36.3145C8.86447 36.3145 11.8573 39.2492 12.022 42.9222C9.59734 42.7274 7.33091 42.2432 5.16565 41.4565ZM34.4376 34.4376C29.682 34.4376 25.8282 29.8112 25.8282 24.1064C25.8282 18.4005 29.6831 13.7751 34.4376 13.7751C39.1922 13.7751 43.0471 18.4005 43.0471 24.1064C43.0471 29.8133 39.1911 34.4376 34.4376 34.4376ZM63.7096 37.4273C61.8242 36.9548 59.8666 36.6901 57.8639 36.519C58.4956 33.7123 60.8233 31.5815 63.7096 31.2156V37.4273ZM63.7096 12.0177C60.3853 11.5969 57.8057 8.82142 57.7035 5.3938C59.8064 5.62733 61.8027 6.06425 63.7096 6.75624V12.0177Z" fill="white"/>
</svg>
